<svg width="209" height="151" viewBox="0 0 209 151" fill="none" xmlns="http://www.w3.org/2000/svg">
<path d="M191.181 150.876C188.338 150.88 185.537 150.182 183.028 148.845C180.519 147.507 178.379 145.571 176.797 143.208C175.215 140.845 174.241 138.129 173.961 135.299C173.681 132.47 174.103 129.615 175.191 126.987C176.279 124.36 177.998 122.042 180.196 120.238C182.394 118.435 185.003 117.201 187.792 116.648C190.581 116.094 193.464 116.237 196.184 117.065C198.904 117.892 201.379 119.378 203.387 121.39C205.017 122.977 206.305 124.88 207.174 126.982C208.043 129.084 208.473 131.341 208.439 133.615C208.432 138.191 206.611 142.576 203.377 145.812C200.142 149.047 195.756 150.868 191.181 150.876ZM191.134 123.317C188.406 123.325 185.792 124.414 183.867 126.347C181.941 128.28 180.862 130.899 180.866 133.627C180.869 136.355 181.955 138.97 183.886 140.898C185.816 142.826 188.433 143.909 191.161 143.909C193.89 143.909 196.506 142.826 198.437 140.898C200.367 138.97 201.453 136.355 201.457 133.627C201.461 130.899 200.381 128.28 198.456 126.347C196.531 124.414 193.917 123.325 191.188 123.317H191.134Z" fill="#173E68"/>
<path d="M140.77 150.904C140.306 150.912 139.844 150.824 139.415 150.646C138.986 150.468 138.598 150.203 138.275 149.869C137.909 149.47 137.628 149 137.449 148.488C137.27 147.976 137.196 147.434 137.233 146.893V132.893C137.134 130.406 136.08 128.052 134.292 126.32C133.349 125.348 132.217 124.579 130.966 124.061C129.714 123.543 128.37 123.286 127.015 123.308H126.877C125.525 123.29 124.183 123.547 122.935 124.065C121.686 124.583 120.556 125.35 119.614 126.32C117.816 128.041 116.75 130.386 116.634 132.871V146.884C116.671 147.425 116.598 147.968 116.419 148.48C116.24 148.992 115.958 149.462 115.592 149.862C115.265 150.189 114.877 150.449 114.45 150.626C114.022 150.803 113.565 150.894 113.102 150.894C112.64 150.894 112.182 150.803 111.755 150.626C111.327 150.449 110.939 150.189 110.612 149.862C110.241 149.45 109.958 148.968 109.779 148.443C109.599 147.919 109.529 147.363 109.57 146.811V133.43C109.556 131.18 109.997 128.951 110.866 126.876C111.735 124.801 113.015 122.923 114.629 121.355C117.839 118.182 122.136 116.349 126.647 116.227H127.211C131.72 116.351 136.012 118.185 139.22 121.355C139.778 121.897 140.3 122.474 140.784 123.083C141.265 122.472 141.787 121.895 142.347 121.355C145.555 118.184 149.849 116.351 154.358 116.227H154.905C159.414 116.351 163.707 118.185 166.914 121.355C168.531 122.923 169.813 124.803 170.683 126.881C171.553 128.959 171.991 131.192 171.973 133.445V146.825C172.014 147.377 171.943 147.932 171.765 148.456C171.587 148.98 171.306 149.463 170.938 149.877C170.612 150.204 170.225 150.465 169.798 150.643C169.371 150.821 168.913 150.913 168.451 150.914C167.988 150.915 167.53 150.825 167.103 150.649C166.675 150.473 166.286 150.214 165.959 149.888L165.947 149.877C165.582 149.476 165.302 149.005 165.123 148.494C164.944 147.982 164.87 147.439 164.905 146.898V132.893C164.802 130.404 163.743 128.049 161.949 126.32C161.007 125.348 159.875 124.579 158.623 124.061C157.372 123.543 156.027 123.287 154.673 123.308H154.532C153.178 123.288 151.834 123.545 150.583 124.063C149.332 124.581 148.2 125.349 147.256 126.32C145.487 128.05 144.446 130.39 144.347 132.862V146.884C144.383 147.424 144.311 147.966 144.133 148.478C143.955 148.99 143.676 149.461 143.312 149.862C142.987 150.195 142.598 150.46 142.168 150.639C141.738 150.818 141.276 150.908 140.811 150.904H140.77Z" fill="#173E68"/>
<path d="M90.3685 150.876C87.5251 150.88 84.7247 150.183 82.2155 148.845C79.7064 147.508 77.566 145.571 75.9844 143.209C74.4028 140.846 73.4287 138.129 73.1485 135.299C72.8684 132.47 73.2908 129.615 74.3784 126.988C75.466 124.36 77.1851 122.042 79.3832 120.239C81.5814 118.435 84.1906 117.202 86.9796 116.648C89.7686 116.094 92.6511 116.238 95.3715 117.065C98.0919 117.892 100.566 119.378 102.575 121.391C104.204 122.977 105.493 124.88 106.361 126.982C107.23 129.084 107.66 131.341 107.626 133.616C107.62 138.191 105.799 142.577 102.564 145.812C99.3295 149.048 94.9438 150.869 90.3685 150.876ZM90.3216 123.318C87.5903 123.326 84.9741 124.419 83.0473 126.355C81.1206 128.291 80.0408 130.912 80.0452 133.643C80.0495 136.375 81.1376 138.993 83.0705 140.923C85.0034 142.852 87.6231 143.936 90.3545 143.936C93.0858 143.936 95.7055 142.852 97.6384 140.923C99.5713 138.993 100.659 136.375 100.664 133.643C100.668 130.912 99.5884 128.291 97.6617 126.355C95.7349 124.419 93.1187 123.326 90.3873 123.318H90.3216Z" fill="#173E68"/>
<path d="M53.8783 150.881C51.0384 150.881 48.2424 150.181 45.7379 148.842C43.2333 147.503 41.0975 145.568 39.5194 143.207C37.9414 140.846 36.9699 138.132 36.691 135.306C36.412 132.48 36.8342 129.628 37.9202 127.004C39.0061 124.38 40.7223 122.064 42.9168 120.262C45.1114 118.459 47.7165 117.226 50.5015 116.67C53.2865 116.115 56.1655 116.255 58.8836 117.078C61.6016 117.9 64.0749 119.381 66.0844 121.387C67.7174 122.972 69.0088 124.874 69.8788 126.976C70.7488 129.079 71.1791 131.337 71.1432 133.612C71.1377 138.189 69.3169 142.578 66.0803 145.814C62.8437 149.051 58.4555 150.872 53.8783 150.877V150.881ZM53.6699 123.319C52.3444 123.322 51.0329 123.589 49.8112 124.103C48.5896 124.617 47.482 125.369 46.5528 126.314C44.861 127.995 43.8044 130.21 43.5631 132.582C43.3217 134.955 43.9105 137.338 45.2291 139.325C46.5477 141.312 48.5145 142.78 50.7943 143.48C53.0742 144.179 55.5261 144.066 57.7321 143.161C59.9382 142.255 61.7619 140.612 62.8925 138.512C64.0232 136.413 64.3908 133.986 63.9326 131.646C63.4745 129.305 62.2191 127.196 60.3802 125.678C58.5413 124.159 56.2328 123.326 53.8481 123.319H53.6699Z" fill="#173E68"/>
<path d="M17.3098 150.968C15.0334 150.974 12.7786 150.527 10.6766 149.654C8.57453 148.78 6.66737 147.497 5.06616 145.879C3.43084 144.294 2.13778 142.39 1.2668 140.286C0.395829 138.181 -0.0345725 135.921 0.00216894 133.644C-0.00743693 130.444 0.871877 127.306 2.54203 124.577C4.21218 121.849 6.60751 119.638 9.46082 118.191C12.3141 116.744 15.5132 116.119 18.7013 116.384C21.8894 116.65 24.941 117.795 27.5159 119.694V109.464C27.5159 108.528 27.8875 107.631 28.5489 106.97C29.2103 106.309 30.1073 105.937 31.0427 105.937C31.978 105.937 32.8751 106.309 33.5365 106.97C34.1979 107.631 34.5694 108.528 34.5694 109.464V133.785C34.5469 138.35 32.7177 142.72 29.482 145.94C26.2463 149.16 21.8673 150.968 17.3025 150.968H17.3098ZM17.3515 123.398C15.6646 123.397 14.0036 123.813 12.5157 124.607C11.0277 125.402 9.75867 126.551 8.82096 127.954C7.88326 129.356 7.30582 130.968 7.13979 132.646C6.97376 134.325 7.22426 136.019 7.86911 137.578C8.51396 139.136 9.53326 140.512 10.8367 141.583C12.1402 142.653 13.6876 143.386 15.3419 143.716C16.9962 144.046 18.7063 143.963 20.3208 143.474C21.9353 142.985 23.4043 142.106 24.5978 140.914C26.3944 139.187 27.4513 136.831 27.5461 134.341C27.5325 134.133 27.5325 133.924 27.5461 133.715V132.409C27.2351 129.923 26.028 127.636 24.1512 125.976C22.2744 124.317 19.8567 123.399 17.3515 123.395V123.398Z" fill="#173E68"/>
<path d="M108.013 36.8725C108.017 36.6268 108.075 36.3849 108.183 36.1642C108.291 35.9435 108.447 35.7494 108.639 35.5958C108.831 35.4408 109.055 35.3289 109.295 35.2678C109.535 35.2066 109.785 35.1977 110.028 35.2415C113.071 35.7022 115.902 37.0742 118.15 39.1765C120.397 41.2789 121.955 44.0129 122.618 47.0182C125.029 58.1644 121.395 64.9032 120.602 73.2813C120.135 78.1431 122.269 78.4308 124.128 77.7877C125.623 77.2938 126.887 76.2715 127.683 74.9123C130.608 69.9821 131.928 64.2639 131.459 58.55C129.902 48.2764 126.043 38.4875 120.173 29.9138C115.703 23.894 111.542 17.6516 107.704 11.2107C105.905 7.45885 103.206 2.16349 105.688 0.457431C109.753 -2.27206 117.097 8.05185 120.92 12.2081C124.375 15.96 139.344 31.6918 145.82 46.3846C148.321 52.0968 155.898 69.8442 149.237 85.1925C147.053 89.7738 143.585 93.6215 139.253 96.2675C134.922 98.9134 129.916 100.243 124.843 100.096C118.404 100.096 107.647 96.5117 106.709 89.33C104.693 74.212 111.962 63.8756 111.132 52.7419C110.87 48.4094 110.061 44.1274 108.724 39.998C108.348 38.9924 108.11 37.9408 108.014 36.8715" fill="#173E68"/>
<path d="M99.8597 36.8723C99.856 36.6265 99.798 36.3847 99.6899 36.164C99.5818 35.9433 99.4263 35.7492 99.2344 35.5956C99.0417 35.4405 98.8179 35.3287 98.5783 35.2675C98.3386 35.2064 98.0886 35.1974 97.8452 35.2413C94.8005 35.7015 91.9669 37.0741 89.7183 39.178C87.4698 41.2818 85.9119 44.0179 85.2503 47.0253C82.8387 58.1715 86.4728 64.9103 87.2659 73.2884C87.7745 78.3295 85.4296 78.4379 83.5141 77.724C82.1082 77.1853 80.919 76.1986 80.1301 74.9163C77.2115 69.9906 75.895 64.28 76.3626 58.5738C77.9238 48.2916 81.7863 38.4947 87.662 29.9136C92.1412 23.8956 96.3085 17.6517 100.147 11.2063C101.946 7.45445 104.645 2.1591 102.163 0.453037C98.0984 -2.27645 90.7541 8.04746 86.9324 12.2037C83.4776 15.9556 68.5086 31.6874 62.0325 46.3875C59.5312 52.0997 51.9545 69.8471 58.6152 85.1954C60.7992 89.7767 64.2678 93.6245 68.5988 96.2704C72.9298 98.9163 77.9365 100.246 83.0096 100.099C89.4483 100.099 100.206 96.5146 101.144 89.3329C103.162 74.2159 95.8911 63.8795 96.7217 52.7458C96.9847 48.4132 97.795 44.1312 99.1333 40.002C99.5623 39.0168 99.8095 37.9621 99.8628 36.889L99.8597 36.8723Z" fill="#173E68"/>
<path d="M120.294 30.0249C125.892 38.2839 129.682 47.6321 131.416 57.4574L131.52 58.5256C131.989 64.2393 130.669 69.9576 127.744 74.8879C126.931 76.2322 125.674 77.2495 124.189 77.7634C122.319 78.3689 120.195 78.1177 120.663 73.2569C121.457 64.9111 125.086 58.139 122.679 46.9938C122.019 43.983 120.46 41.2438 118.208 39.1394C115.956 37.0349 113.117 35.6645 110.069 35.2098C109.825 35.166 109.575 35.1749 109.335 35.2361C109.096 35.2972 108.872 35.4091 108.679 35.5641C108.487 35.7177 108.332 35.9118 108.224 36.1325C108.116 36.3532 108.058 36.5951 108.054 36.8408C108.11 37.9361 108.341 39.0152 108.739 40.0372C110.08 44.1656 110.891 48.448 111.15 52.7811C111.943 63.9273 104.712 74.2501 106.727 89.3691C107.665 96.5008 118.411 100.135 124.861 100.135C129.933 100.277 134.938 98.9444 139.268 96.2991C143.598 93.6538 147.067 89.8093 149.256 85.2317C155.882 69.8792 120.291 30.0249 120.291 30.0249" fill="#173E68"/>
<path d="M87.5871 29.9155C81.9549 38.2139 78.1408 47.6094 76.3951 57.4856L76.2909 58.5538C75.8221 64.2643 77.1401 69.9794 80.0626 74.9078C80.8755 76.2519 82.1331 77.2692 83.6175 77.7832C85.4871 78.3887 87.6111 78.1376 87.1432 73.2768C86.3501 64.9309 82.7201 58.1588 85.1276 47.0136C85.7864 44.0052 87.3435 41.2678 89.5926 39.1638C91.8417 37.0599 94.6767 35.6887 97.7224 35.2317C97.9659 35.1879 98.2159 35.1969 98.4555 35.258C98.6952 35.3191 98.9189 35.431 99.1117 35.5861C99.3035 35.7396 99.4591 35.9337 99.5672 36.1544C99.6753 36.3751 99.7333 36.617 99.737 36.8628C99.6808 37.9566 99.4496 39.0343 99.0522 40.055C97.7108 44.1833 96.9004 48.4657 96.6406 52.7988C95.8475 63.945 103.079 74.2679 101.064 89.3869C100.126 96.5186 89.3797 100.153 82.9296 100.153C77.8584 100.295 72.8546 98.9638 68.5248 96.3199C64.195 93.676 60.7249 89.833 58.5351 85.2567C51.8922 69.9011 87.5871 29.9166 87.5871 29.9166" fill="#173E68"/>
</svg>
